<svg width="201" height="158" viewBox="0 0 201 158" fill="none" xmlns="http://www.w3.org/2000/svg">
<path d="M0 15.7412H201V136.259H0V15.7412Z" fill="black"/>
<path d="M99.4204 30.876H100.5L104.131 31.2764L107.665 31.8369L110.707 32.4775L113.848 33.3584L116.301 34.2393L118.559 35.2002L120.423 36.1611L122.288 37.2021L123.858 38.2432L124.644 38.9639L125.036 39.6045L125.134 40.2451L124.742 41.2061L123.957 42.4072L122.681 44.0088L121.208 45.9307L119.933 47.4521L119.049 48.4131L117.773 49.6143L116.792 50.415L115.418 51.2959L113.946 52.0967L112.081 52.8174L111.394 53.0576L110.903 55.0596L110.216 57.0615L109.431 58.6631L108.155 60.665L107.566 62.3467L106.879 64.4287L106.291 65.71L105.309 67.2314L104.229 68.5928L103.641 69.6338L103.346 70.5947V70.9951L108.94 71.0752L109.627 71.7158L110.903 72.7568L111.001 72.917V75.6396L110.805 75.7197H106.683L106.585 75.96H110.805L111.001 76.04V78.2021L110.903 78.2822H107.959V78.5225H110.413L111.001 78.6826V83.0869L110.903 83.167H109.824L111.1 85.6494L112.081 87.8916L112.866 89.8936L113.553 92.2158L113.946 93.8975L114.535 97.3408L114.927 98.542L115.712 99.583L117.283 101.505L118.362 103.026L119.442 105.028L120.718 107.671L122.19 110.474L123.368 112.476L124.447 113.997L125.331 115.038L126.41 116.079L127.49 116.96L128.569 117.681L129.943 118.642L131.023 119.362L132.495 120.483L133.575 121.204L135.145 122.245L135.636 122.646V123.206L134.949 123.687L133.869 124.007L132.397 124.247L131.514 124.327H127.686L126.018 124.087L124.84 123.687L123.858 122.966L123.27 122.245L120.423 122.165L119.442 121.845L118.559 121.204L118.068 120.323V119.202L118.46 117.921V115.759L118.166 114.397L117.675 113.356L116.988 112.476L116.105 111.595L115.418 111.034L114.633 110.474L113.651 109.753L112.572 109.032L109.824 106.79L108.744 105.669L107.861 104.548L107.468 103.747L107.076 101.825L106.487 100.544L105.604 99.8232L104.72 98.9424L103.739 97.8213L102.954 96.6201L102.07 94.6182L101.58 93.6572L100.696 92.7764L99.3223 91.1748L97.6538 88.9326L95.5928 86.1299L95.4946 85.8896L94.1206 85.8096L93.041 85.4893L91.9614 84.8486L91.2744 84.0479L89.9004 81.9658L89.7041 81.6455V82.6865L89.9985 83.4072L90.7837 84.6084V85.8896L90.293 89.8135V90.0537L91.4707 85.7295L91.5688 85.5693L91.9614 85.7295L92.7466 86.21L93.728 86.5303L95.2983 86.6904L94.9058 88.1318L94.1206 90.374L93.041 93.0166L92.5503 94.0576L92.6484 96.1396L92.9429 98.8623L93.2373 99.9834L93.728 100.624L95.1021 101.505L95.7891 102.065L96.5742 103.106L97.2612 104.308L97.752 105.589L97.9482 106.47V108.071L97.3594 111.034V113.196L97.752 115.198L98.2427 116.159L98.9297 117.04L99.9111 118.001L100.5 118.962V120.083L100.206 120.884L99.6167 121.524L98.7334 121.925L97.6538 122.005L95.0039 121.604L94.0225 121.685L92.8447 122.085L91.4707 122.646L89.8022 122.966L87.6431 123.206H84.6987L83.2266 122.966L82.147 122.565L81.5581 122.165L81.46 122.005V121.284L81.8525 120.724L82.3433 120.323L83.3247 119.843L86.1709 118.882L87.7412 118.241L88.9189 117.601L89.9985 116.88L90.6855 116.399L91.2744 115.599L91.3726 115.438V114.237L90.6855 111.835L89.606 108.712L88.8208 107.03L88.0356 105.669L87.2505 104.708L86.3672 103.907L85.3857 103.187L84.6006 102.626L84.0117 102.065L83.6191 101.265L83.4229 99.8232L83.2266 97.9814L82.7358 96.1396L82.147 93.8174L81.8525 91.2549V84.2881L81.9507 83.167H79.8896L79.7915 83.0869V71.0752H84.5024V72.4365H84.6987L84.7969 72.0361L85.1895 71.3955L85.0913 70.5947L84.0117 65.9502L83.6191 65.2295L82.7358 64.5889L81.8525 64.0283L80.8711 63.0674L79.9878 61.7861L79.4971 60.7451L79.3008 59.5439V58.6631L79.5952 56.8213L79.3008 57.1416L78.3193 56.9814L76.062 56.4209L75.9639 56.501L77.2397 57.3018L78.5156 58.0225L78.9082 58.1826V59.8643L79.3008 61.2256L79.4971 61.5459L79.3989 61.8662L75.6694 63.7881L73.7065 64.749L72.2344 65.3096L70.5659 65.71L68.8975 65.8701L66.9346 65.79L63.5977 65.3896L61.3403 65.0693L60.0645 64.749L59.1812 64.2686L58.5923 63.6279L58.2979 62.7471V60.9053L58.6904 58.7432L59.4756 55.6201L60.5552 52.0967L61.6348 49.4541L62.5181 47.8525L63.5977 46.251L64.9717 44.4893L66.0513 43.1279L67.0327 42.0068L67.8179 41.5264L68.3086 41.3662H69.1919L70.7622 41.5264L72.0381 41.9268L72.8232 42.4072L73.4121 43.1279L73.9028 44.1689V45.0498L73.5103 45.8506L73.7065 46.251L73.9028 46.8115L73.314 47.6123L72.627 48.2529L71.2529 49.1338L70.6641 49.374L69.7808 49.2939L68.7993 49.2139L68.2104 49.6143L67.5234 50.7354L67.1309 51.7764L66.9346 52.8975V53.7783L67.4253 56.4209L67.5234 57.542V58.7432L67.229 59.7842L66.542 60.9053L65.6587 61.8662L66.1494 61.7061L67.3271 60.8252L68.0142 59.8643L68.2104 59.1436V58.3428L67.8179 57.4619L67.7197 57.2217L68.5049 56.5811L69.8789 55.8604L70.8604 55.54L71.2529 55.46L72.7251 55.3799L73.4121 54.5791L74.5898 53.458L75.9639 52.5771L77.5342 51.9365L78.9082 51.6162L79.4971 51.5361H81.5581L82.3433 51.6162L83.7173 50.5752L84.7969 49.8545L85.8765 49.0537L85.4839 47.6924L85.3857 47.2119L87.5449 46.7314L88.7227 46.1709L89.2134 45.3701L89.5078 44.0088V43.1279L88.9189 44.8096L88.4282 45.8506L87.9375 46.1709L86.6616 46.5713L83.6191 47.1318L82.2451 47.2119L81.9507 47.1318L81.5581 46.3311L80.8711 44.1689L79.1045 44.3291L78.9082 43.8486L79.3989 41.6064V40.6455L79.1045 40.2451L78.7119 39.8447L78.6138 39.5244L78.5156 36.8818L78.2212 36.3213V35.5205L78.7119 34.8799L79.5952 34.3193L81.1655 33.6787L83.8154 32.958L85.7783 32.6377H87.2505L88.2319 32.958L88.6245 33.2783L89.8022 33.1182L90.98 33.4385L91.9614 34.0791L93.1392 35.1201L94.2188 36.4014L94.6113 37.2021L94.5132 37.9229L94.0225 38.7236L93.3354 39.6045L92.8447 40.4854L92.4521 41.7666V43.1279L92.8447 44.3291L93.2373 45.1299V45.29L97.2612 46.0107L97.0649 46.3311L96.2798 47.2119L95.2002 48.2529L93.9243 49.2939L92.5503 50.1748L91.3726 51.0557L90.98 51.7764V52.3369L91.3726 51.5361L92.0596 50.8955L93.4336 50.0947L94.6113 49.4541L95.8872 48.5732L96.8687 47.6924L98.5371 45.6904L99.3223 45.0498L100.402 44.4893L101.972 43.9287L103.248 43.6885H105.309L106.487 43.9287L107.468 44.249L107.763 44.4092H108.057L108.744 43.7686L109.627 43.1279L111.1 42.3271L112.964 41.6865L113.848 41.4463L114.338 41.5264L114.437 41.7666H114.633V41.9268L116.399 42.6475L117.086 42.8076H118.853L119.933 42.4873L120.914 41.9268L121.012 41.7666L119.736 42.0869L118.951 42.167H117.185L116.007 41.9268L115.025 41.4463L114.142 40.7256L113.161 39.5244L112.081 38.0029L111.59 37.5225L110.511 36.9619L108.744 36.3213L107.763 36.0811H106.781L105.211 36.4814H103.542L102.463 36.2412L102.267 36.6416L101.874 36.8818L101.58 36.9619H100.893L98.9297 36.5615L97.752 36.1611L97.3594 35.7607L97.2612 35.5205V34.3193L97.6538 33.1182L98.2427 31.9971L99.0278 31.1162L99.4204 30.876Z" fill="#6D5A5A"/>
<path d="M79.7915 71.0752H84.5024L84.6006 77.0811V80.8447L84.7969 80.9248V77.8818L84.895 76.8408H89.5078L89.606 77.2412V82.4463L89.9004 83.2471L90.7837 84.6084V85.8896L90.293 89.8135V90.0537L91.4707 85.7295L91.5688 85.5693L91.9614 85.7295L92.7466 86.21L93.728 86.5303L95.2983 86.6904L94.9058 88.1318L94.1206 90.374L93.041 93.0166L92.5503 94.0576L92.6484 96.1396L92.9429 98.8623L93.2373 99.9834L93.728 100.624L95.1021 101.505L95.7891 102.065L96.5742 103.106L97.2612 104.308L97.752 105.589L97.9482 106.47V108.071L97.3594 111.034V113.196L97.752 115.198L98.2427 116.159L98.9297 117.04L99.9111 118.001L100.5 118.962V120.083L100.206 120.884L99.6167 121.524L98.7334 121.925L97.6538 122.005L95.0039 121.604L94.0225 121.685L92.8447 122.085L91.4707 122.646L89.8022 122.966L87.6431 123.206H84.6987L83.2266 122.966L82.147 122.565L81.5581 122.165L81.46 122.005V121.284L81.8525 120.724L82.3433 120.323L83.3247 119.843L86.1709 118.882L87.7412 118.241L88.9189 117.601L89.9985 116.88L90.6855 116.399L91.2744 115.599L91.3726 115.438V114.237L90.6855 111.835L89.606 108.712L88.8208 107.03L88.0356 105.669L87.2505 104.708L86.3672 103.907L85.3857 103.187L84.6006 102.626L84.0117 102.065L83.6191 101.265L83.4229 99.8232L83.2266 97.9814L82.7358 96.1396L82.147 93.8174L81.8525 91.2549V84.2881L81.9507 83.167H79.8896L79.7915 83.0869V71.0752Z" fill="#6E5B5B"/>
<path d="M101.187 71.0752H108.94L109.627 71.7158L110.903 72.7568L111.001 72.917V75.6396L110.805 75.7197H106.683L106.585 75.96H110.805L111.001 76.04V78.2021L110.903 78.2822H107.959V78.5225H110.413L111.001 78.6826V83.0869L110.903 83.167H101.285L101.187 82.6865V71.0752Z" fill="#ACA4A0"/>
<path d="M122.877 71.0752H130.532L132.495 72.6768L132.593 72.8369V78.9229L131.808 79.5635L131.906 79.9639L132.593 80.5244V83.167H127.98L127.882 83.0068V80.6045H127.588V83.0869L127.49 83.167H122.877V71.0752Z" fill="#ACA4A0"/>
<path d="M42.4966 71.0752H50.1519L52.2129 72.7568V81.4854L50.1519 83.167H42.4966V71.0752Z" fill="#ACA4A0"/>
<path d="M68.9956 71.0752H76.6509L78.7119 72.7568L78.8101 72.917V76.2002L78.123 76.8408L77.9268 77.001L78.0249 77.3213L78.7119 77.8818L78.8101 78.042V81.2451L78.5156 81.6455L76.6509 83.167H69.0938L68.9956 83.0869V71.0752Z" fill="#ABA39F"/>
<path d="M21.1011 71.0752H28.7563L30.8174 72.7568L30.9155 72.917V76.1201L30.6211 76.5205L30.0322 77.001L30.1304 77.3213L30.8174 77.8818L30.9155 78.2021V81.3252L30.2285 81.9658L28.7563 83.167H21.1992L21.1011 83.0869V71.0752Z" fill="#ABA39F"/>
<path d="M141.524 71.0752H149.18L151.241 72.7568L151.339 83.0869L151.241 83.167H146.726L146.628 83.0869L146.53 74.2783L146.235 74.1982V83.0869L146.137 83.167H141.623L141.524 83.0869V71.0752Z" fill="#ABA39F"/>
<path d="M90.6855 71.0752H95.2983L95.3965 71.1553V80.9248H95.6909V71.2354L95.7891 71.0752H100.402V81.4053L99.7148 82.0459L98.439 83.0869L98.2427 83.167H92.7466L90.7837 81.5654L90.6855 81.4053V71.0752Z" fill="#AEA6A2"/>
<path d="M33.6636 71.0752H39.356L41.2207 72.5967L41.417 72.8369V81.4854L39.356 83.167H33.7617L31.7007 81.4854L31.6025 80.8447L31.7007 72.7568L33.4673 71.3154L33.6636 71.0752Z" fill="#ABA39F"/>
<path d="M165.177 71.0752H170.87L172.636 72.5166L172.931 72.8369V75.6396L172.833 75.7197H168.318L168.22 75.6396V73.3174H167.925V75.8799L168.318 75.96H170.771L171.557 76.5205L172.44 77.2412L172.931 77.7217V81.4053L172.244 82.0459L170.87 83.167H165.275L163.214 81.4854V78.5225H167.827L167.925 80.8447L168.22 80.9248V78.2822H165.374L164.588 77.7217L163.214 76.6006V72.8369L163.901 72.1963L165.079 71.2354L165.177 71.0752Z" fill="#ABA39F"/>
<path d="M112.081 71.0752H119.736L120.62 71.876L121.405 72.4365L121.797 72.8369V78.8428L121.11 79.4834L119.933 80.3643L119.736 80.6045H116.694V83.167H112.081L111.983 71.3154L112.081 71.0752Z" fill="#ACA39F"/>
<path d="M53.2925 71.0752H57.9053L58.0034 71.1553V76.8408H58.396V71.0752H63.0088V77.2412L61.5366 78.4424L60.6533 79.0029L60.5552 83.0869L60.457 83.167H55.9424L55.8442 83.0869V78.9229L55.4517 78.8428L54.6665 78.2822L53.2925 77.1611V71.0752Z" fill="#ABA29E"/>
<path d="M79.7915 71.0752H84.5024L84.6006 77.0811V80.8447L84.7969 80.9248V77.8818L84.895 76.8408H89.5078L89.606 77.2412V82.4463L89.7041 83.0869L89.606 83.167H79.8896L79.7915 83.0869V71.0752Z" fill="#ACA4A0"/>
<path d="M152.32 71.0752H162.037L162.135 71.1553V74.1982H159.583V83.167H154.97L154.872 83.0869V74.1982H152.32V71.0752Z" fill="#AAA29E"/>
<path d="M133.673 71.0752H140.445V74.1982H139.463V79.9639L140.445 80.0439V83.167H133.771L133.673 83.0869V80.0439H134.752L134.654 74.2783L133.673 74.1982V71.0752Z" fill="#ACA4A0"/>
<path d="M106.487 47.4521L106.585 47.6123L105.8 49.2139L105.309 50.8154L105.015 52.5771V52.9775H109.235L109.137 53.1377L105.211 53.9385L105.015 54.0186L104.72 55.8604L104.426 56.6611L103.837 57.6221L102.954 58.4229L101.776 59.1436H101.58L101.776 58.8232L102.855 57.3818L103.444 56.4209L103.837 55.2998L104.131 53.0576L104.426 50.9756L104.818 49.7744L105.407 48.6533L106.389 47.5322L106.487 47.4521Z" fill="black"/>
<path d="M90.0967 55.8604L90.293 56.1006L90.98 57.9424L91.667 58.9033L92.354 59.5439L93.728 60.1846L94.7095 60.5049L96.6724 60.8252L96.5742 60.9854L95.2983 61.1455H94.415L93.3354 60.9854L92.354 60.585L91.667 60.1045L90.98 59.3037L90.4893 58.2627L90.1948 57.2217L90.0967 56.5811V55.8604Z" fill="black"/>
<path d="M109.137 100.304L109.627 100.704L110.805 101.745L111.492 102.065H112.474L113.946 101.745L114.535 101.665L114.338 102.065L113.75 102.626L112.964 103.106L112.474 103.267H111.492L110.903 102.946L110.216 102.306L109.627 101.505L109.137 100.544V100.304Z" fill="black"/>
<path d="M91.5688 62.2666L91.667 62.5869L91.5688 62.9072V64.9092L91.667 65.3896H92.2559L92.1577 65.79L91.667 66.6709L91.3726 67.6318L91.1763 69.3135L90.98 69.2334L90.8818 68.5928V67.0713L91.1763 65.9502V65.3896L90.98 64.6689V63.1475L91.4707 62.3467L91.5688 62.2666Z" fill="black"/>
<path d="M47.2075 73.3975H47.6001V80.8447L47.3057 80.9248L47.2075 80.8447V73.3975Z" fill="black"/>
<path d="M82.4414 51.7764L84.895 52.0967L87.3486 52.2568L88.1338 52.4971L88.5264 52.7373V52.8975L87.8394 52.8174L86.269 52.6572L84.4043 52.5771L83.1284 52.2568L82.4414 51.9365V51.7764Z" fill="black"/>
<path d="M36.4116 73.3174H36.7061V80.9248H36.4116V73.3174Z" fill="black"/>
<path d="M127.588 73.3174L127.98 73.3975V78.2822H127.588L127.49 77.4814V73.7178L127.588 73.3174Z" fill="black"/>
<path d="M116.792 73.3174L117.086 73.3975V78.2822L116.694 78.2021V75.2393L116.792 73.3174Z" fill="black"/>
<path d="M111.001 96.54L112.375 96.7002L113.161 97.0205L113.455 97.3408V97.8213L113.161 98.1416L112.768 97.9814L111.983 97.1807L111.001 96.7002V96.54Z" fill="black"/>
<path d="M107.763 78.2021H110.903V78.2822H107.959V78.5225H110.413V78.6025H107.861L106.291 78.5225L106.192 80.9248H105.996V78.2822L107.763 78.2021Z" fill="#604F4F"/>
<path d="M25.812 78.2021L26.2046 78.3623V80.8447L25.812 80.9248V78.2021Z" fill="black"/>
<path d="M25.812 73.3174L26.2046 73.3975V75.96H25.812V73.3174Z" fill="black"/>
<path d="M73.7065 78.2822H74.0991V80.8447H73.7065V78.2822Z" fill="black"/>
<path d="M73.7065 73.3975H74.0991V75.96H73.7065V73.3975Z" fill="black"/>
<path d="M105.996 73.3174L106.291 73.3975V75.0791L105.996 74.9189L105.898 74.6787V73.3975L105.996 73.3174Z" fill="black"/>
<path d="M105.898 74.6787L106.291 75.0791V75.96H105.996L105.898 74.6787Z" fill="#604F4F"/>
</svg>
